<svg width="39" height="39" viewBox="0 0 39 39" fill="none" xmlns="http://www.w3.org/2000/svg">
<mask id="path-1-inside-1" fill="white">
<path fill-rule="evenodd" clip-rule="evenodd" d="M8.48528 0L0 8.48528L10.6066 19.0919L7.236e-05 29.6985L8.48535 38.1838L19.0919 27.5772L29.6985 38.1838L38.1838 29.6985L27.5772 19.0919L38.1838 8.48528L29.6986 0L19.0919 10.6066L8.48528 0Z"/>
</mask>
<path fill-rule="evenodd" clip-rule="evenodd" d="M8.48528 0L0 8.48528L10.6066 19.0919L7.236e-05 29.6985L8.48535 38.1838L19.0919 27.5772L29.6985 38.1838L38.1838 29.6985L27.5772 19.0919L38.1838 8.48528L29.6986 0L19.0919 10.6066L8.48528 0Z" fill="white"/>
<path d="M0 8.48528L-1.41421 7.07107L-2.82843 8.48528L-1.41421 9.8995L0 8.48528ZM8.48528 0L9.89949 -1.41421L8.48528 -2.82843L7.07107 -1.41421L8.48528 0ZM10.6066 19.0919L12.0209 20.5061L13.4351 19.0919L12.0209 17.6777L10.6066 19.0919ZM7.236e-05 29.6985L-1.41414 28.2843L-2.82835 29.6985L-1.41414 31.1127L7.236e-05 29.6985ZM8.48535 38.1838L7.07114 39.598L8.48535 41.0122L9.89957 39.598L8.48535 38.1838ZM19.0919 27.5772L20.5061 26.163L19.0919 24.7488L17.6777 26.163L19.0919 27.5772ZM29.6985 38.1838L28.2843 39.598L29.6985 41.0122L31.1127 39.598L29.6985 38.1838ZM38.1838 29.6985L39.598 31.1127L41.0122 29.6985L39.598 28.2843L38.1838 29.6985ZM27.5772 19.0919L26.163 17.6777L24.7488 19.0919L26.163 20.5061L27.5772 19.0919ZM38.1838 8.48528L39.5981 9.8995L41.0123 8.48528L39.5981 7.07107L38.1838 8.48528ZM29.6986 0L31.1128 -1.41421L29.6986 -2.82843L28.2843 -1.41421L29.6986 0ZM19.0919 10.6066L17.6777 12.0209L19.0919 13.4351L20.5061 12.0209L19.0919 10.6066ZM1.41421 9.8995L9.89949 1.41421L7.07107 -1.41421L-1.41421 7.07107L1.41421 9.8995ZM12.0209 17.6777L1.41421 7.07107L-1.41421 9.8995L9.19242 20.5061L12.0209 17.6777ZM9.19242 17.6777L-1.41414 28.2843L1.41429 31.1127L12.0209 20.5061L9.19242 17.6777ZM-1.41414 31.1127L7.07114 39.598L9.89957 36.7696L1.41429 28.2843L-1.41414 31.1127ZM9.89957 39.598L20.5061 28.9914L17.6777 26.163L7.07114 36.7696L9.89957 39.598ZM31.1127 36.7696L20.5061 26.163L17.6777 28.9914L28.2843 39.598L31.1127 36.7696ZM36.7696 28.2843L28.2843 36.7696L31.1127 39.598L39.598 31.1127L36.7696 28.2843ZM26.163 20.5061L36.7696 31.1127L39.598 28.2843L28.9914 17.6777L26.163 20.5061ZM28.9914 20.5061L39.5981 9.8995L36.7696 7.07107L26.163 17.6777L28.9914 20.5061ZM39.5981 7.07107L31.1128 -1.41421L28.2843 1.41421L36.7696 9.8995L39.5981 7.07107ZM28.2843 -1.41421L17.6777 9.19242L20.5061 12.0209L31.1128 1.41421L28.2843 -1.41421ZM7.07107 1.41421L17.6777 12.0209L20.5061 9.19242L9.89949 -1.41421L7.07107 1.41421Z" fill="black" mask="url(#path-1-inside-1)"/>
</svg>
